<?xml version="1.0" encoding="UTF-8"?>
<svg width="43px" height="32px" viewBox="0 0 43 32" version="1.1" xmlns="http://www.w3.org/2000/svg" xmlns:xlink="http://www.w3.org/1999/xlink">
    <!-- Generator: Sketch 52.6 (67491) - http://www.bohemiancoding.com/sketch -->
    <title>communications (1)</title>
    <desc>Created with Sketch.</desc>
    <g id="Layout" stroke="none" stroke-width="1" fill="none" fill-rule="evenodd">
        <g id="Info-and-about" transform="translate(-1060.000000, -768.000000)" fill="#008BFE">
            <g id="Content" transform="translate(131.000000, 619.000000)">
                <g id="Kontakt" transform="translate(929.000000, 0.000000)">
                    <g id="Mail" transform="translate(0.000000, 138.000000)">
                        <g id="communications-(1)" transform="translate(0.000000, 11.000000)">
                            <path d="M38.968722,1.2656692e-15 L4.03127805,1.2656692e-15 C1.80829461,1.2656692e-15 0,1.79427433 0,4.00002227 L0,27.9999777 C0,30.2057257 1.80829461,32 4.03127805,32 L38.968722,32 C41.1917054,32 43,30.2057257 43,27.9999777 L43,4.00002227 C43,1.79427433 41.1917054,0 38.968722,1.2656692e-15 Z M38.968722,2.66665182 C39.1512927,2.66665182 39.3249774,2.70423664 39.4837619,2.76987648 L21.5,18.2356733 L3.51614836,2.76987648 C3.67493289,2.70432571 3.8486175,2.66665182 4.03118829,2.66665182 L38.968722,2.66665182 Z M38.968722,29.3332591 L4.03127805,29.3332591 C3.28986469,29.3332591 2.68748878,28.7356427 2.68748878,27.9998887 L2.68748878,5.58722383 L20.6194594,21.0077764 C20.8727607,21.2251805 21.1863804,21.3333036 21.5,21.3333036 C21.8136196,21.3333036 22.1272393,21.2252696 22.3805406,21.0077764 L40.3125112,5.58722383 L40.3125112,27.9999777 C40.3124215,28.7356427 39.7101353,29.3332591 38.968722,29.3332591 Z" id="Shape"></path>
                        </g>
                    </g>
                </g>
            </g>
        </g>
    </g>
</svg>