<?xml version="1.0" encoding="UTF-8"?>
<svg width="19px" height="20px" viewBox="0 0 19 20" version="1.1" xmlns="http://www.w3.org/2000/svg" xmlns:xlink="http://www.w3.org/1999/xlink">
    <!-- Generator: Sketch 52.6 (67491) - http://www.bohemiancoding.com/sketch -->
    <title>Instagram</title>
    <desc>Created with Sketch.</desc>
    <g id="Layout" stroke="none" stroke-width="1" fill="none" fill-rule="evenodd">
        <g id="Info-and-about" transform="translate(-181.000000, -897.000000)" fill="#FFFFFF">
            <g id="Content" transform="translate(131.000000, 619.000000)">
                <g id="O-nas">
                    <g id="social" transform="translate(0.000000, 278.000000)">
                        <g id="Instagram" transform="translate(50.000000, 0.000000)">
                            <path d="M18.95171,5.88007264 C18.9071905,4.81739235 18.7439036,4.08680919 18.5099946,3.45374908 C18.2686897,2.78177129 17.8974515,2.18015047 17.4110715,1.68002075 C16.9358576,1.1721075 16.3604384,0.777436949 15.7293335,0.527448376 C15.1243312,0.281275287 14.4337702,0.109427214 13.4240313,0.0625734279 C12.4067516,0.0117515889 12.0838034,0 9.50369789,0 C6.9235924,0 6.60064417,0.0117515889 5.58713489,0.0586053752 C4.57739598,0.105459161 3.88320955,0.277459803 3.28183266,0.523480324 C2.64318698,0.777436949 2.07153814,1.16813945 1.59632425,1.68002075 C1.1137146,2.18015047 0.738850996,2.78573935 0.501171568,3.4499336 C0.267262509,4.08680919 0.103975689,4.8134243 0.0594560992,5.87610459 C0.0111661397,6.94672098 0,7.28660164 0,10.001984 C0,12.7173664 0.0111661397,13.0572471 0.0556857298,14.1238954 C0.10020532,15.1865757 0.263637108,15.9171589 0.497546167,16.550219 C0.738850996,17.2221968 1.1137146,17.8238176 1.59632425,18.3239473 C2.07153814,18.8318605 2.64695735,19.2265311 3.27806229,19.4765197 C3.88320955,19.7226928 4.57362561,19.8945408 5.58350949,19.9413946 C6.5968738,19.988401 6.919967,20 9.50007248,20 C12.080178,20 12.4031262,19.988401 13.4166355,19.9413946 C14.4263744,19.8945408 15.1205608,19.7226928 15.7219377,19.4765197 C16.9990841,18.9568548 18.008823,17.8941745 18.5025988,16.550219 C18.7363629,15.9133434 18.8997947,15.1865757 18.9443143,14.1238954 C18.9888339,13.0572471 19,12.7173664 19,10.001984 C19,7.28660164 18.9962296,6.94672098 18.95171,5.88007264 Z M17.2403889,14.0457549 C17.1994947,15.0225112 17.0436037,15.5499595 16.9136703,15.9015918 C16.5943475,16.7728889 15.9372849,17.4644018 15.1093947,17.800467 C14.7752803,17.9372129 14.2704833,18.1012774 13.3460132,18.1441631 C12.3436701,18.1911695 12.0430541,18.2027685 9.50746825,18.2027685 C6.97188236,18.2027685 6.66749603,18.1911695 5.6687783,18.1441631 C4.7406828,18.1012774 4.23951123,17.9372129 3.90539686,17.800467 C3.49340944,17.6402179 3.11840087,17.3862613 2.81401454,17.0541642 C2.49846207,16.7298506 2.25715724,16.3391481 2.10489159,15.9055598 C1.97495822,15.5539276 1.81906717,15.0225112 1.77831795,14.049723 C1.73365339,12.9948262 1.72263222,12.6782962 1.72263222,10.0097676 C1.72263222,7.34123897 1.73365339,7.02089343 1.77831795,5.96996473 C1.81906717,4.99320848 1.97495822,4.4657601 2.10489159,4.11412785 C2.25715724,3.68038705 2.49846207,3.28586906 2.81778491,2.96537096 C3.12579664,2.63327383 3.49703484,2.3793172 3.90916723,2.21922072 C4.2432816,2.08247484 4.74822354,1.91841031 5.67254867,1.875372 C6.67489181,1.82851822 6.97565273,1.81676663 9.51109366,1.81676663 C12.0504499,1.81676663 12.3510659,1.82851822 13.3497836,1.875372 C14.2778791,1.91841031 14.7790507,2.08247484 15.1131651,2.21922072 C15.5251525,2.3793172 15.900161,2.63327383 16.2045474,2.96537096 C16.5200998,3.28968454 16.7614047,3.68038705 16.9136703,4.11412785 C17.0436037,4.4657601 17.1994947,4.99702396 17.2403889,5.96996473 C17.2849085,7.02486148 17.2960747,7.34123897 17.2960747,10.0097676 C17.2960747,12.6782962 17.2849085,12.9908582 17.2403889,14.0457549 Z" id="Shape" fill-rule="nonzero"></path>
                            <path d="M9.10416667,5 C6.26328877,5 3.95833333,7.23948433 3.95833333,10 C3.95833333,12.7605157 6.26328877,15 9.10416667,15 C11.9451974,15 14.25,12.7605157 14.25,10 C14.25,7.23948433 11.9451974,5 9.10416667,5 Z M9.10416667,13.2433757 C7.26114999,13.2433757 5.76619251,11.7909339 5.76619251,10 C5.76619251,8.20906608 7.26114999,6.7566243 9.10416667,6.7566243 C10.9473362,6.7566243 12.4421408,8.20906608 12.4421408,10 C12.4421408,11.7909339 10.9473362,13.2433757 9.10416667,13.2433757 Z" id="Shape" fill-rule="nonzero"></path>
                            <path d="M15.8333333,4.16666667 C15.8333333,5.08705517 15.301644,5.83333333 14.6457578,5.83333333 C13.9900227,5.83333333 13.4583333,5.08705517 13.4583333,4.16666667 C13.4583333,3.2460661 13.9900227,2.5 14.6457578,2.5 C15.301644,2.5 15.8333333,3.2460661 15.8333333,4.16666667 Z" id="Path"></path>
                        </g>
                    </g>
                </g>
            </g>
        </g>
    </g>
</svg>