<?xml version="1.0" encoding="UTF-8"?>
<svg width="33px" height="40px" viewBox="0 0 33 40" version="1.1" xmlns="http://www.w3.org/2000/svg" xmlns:xlink="http://www.w3.org/1999/xlink">
    <!-- Generator: Sketch 52.6 (67491) - http://www.bohemiancoding.com/sketch -->
    <title>signs</title>
    <desc>Created with Sketch.</desc>
    <g id="Layout" stroke="none" stroke-width="1" fill="none" fill-rule="evenodd">
        <g id="Info-and-about" transform="translate(-1061.000000, -844.000000)" fill="#008BFE">
            <g id="Content" transform="translate(131.000000, 619.000000)">
                <g id="Kontakt" transform="translate(929.000000, 0.000000)">
                    <g id="Lokalizacja" transform="translate(1.000000, 211.000000)">
                        <g id="signs" transform="translate(0.000000, 14.000000)">
                            <path d="M16.5,0 C7.4019,0 0,6.3084375 0,14.0625 C0,16.6823437 0.851491667,19.2390625 2.46299167,21.4571875 L15.5607833,39.4460156 C15.811675,39.790625 16.2536917,40 16.729075,40 C16.7327417,40 16.7363167,40 16.7399833,40 C17.2194917,39.9967969 17.662425,39.7809375 17.9087333,39.4303125 L30.672675,21.2671875 C32.1952583,19.0959375 33,16.6046094 33,14.0625 C33,6.3084375 25.5981,0 16.5,0 Z M28.3127167,20.0639062 L16.7082667,36.5770312 L4.80030833,20.2223437 C3.45895,18.3760937 2.73166667,16.2460937 2.73166667,14.0625 C2.73166667,7.60078125 8.91825,2.328125 16.5,2.328125 C24.08175,2.328125 30.2591667,7.60078125 30.2591667,14.0625 C30.2591667,16.1813281 29.579825,18.256875 28.3127167,20.0639062 Z" id="Shape"></path>
                            <path d="M16.5,7.5 C11.768988,7.5 7.92,10.584125 7.92,14.375 C7.92,18.1416597 11.706354,21.25 16.5,21.25 C21.3527527,21.25 25.08,18.1002569 25.08,14.375 C25.08,10.584125 21.231012,7.5 16.5,7.5 Z M16.5,18.9736111 C13.3294993,18.9736111 10.7609333,16.9085903 10.7609333,14.375 C10.7609333,11.84775 13.345992,9.77638889 16.5,9.77638889 C19.654008,9.77638889 22.2295333,11.84775 22.2295333,14.375 C22.2295333,16.8716181 19.7207413,18.9736111 16.5,18.9736111 Z" id="Shape"></path>
                        </g>
                    </g>
                </g>
            </g>
        </g>
    </g>
</svg>