<?xml version="1.0" encoding="UTF-8"?>
<svg width="40px" height="40px" viewBox="0 0 40 40" version="1.1" xmlns="http://www.w3.org/2000/svg" xmlns:xlink="http://www.w3.org/1999/xlink">
    <!-- Generator: Sketch 52.6 (67491) - http://www.bohemiancoding.com/sketch -->
    <title>communications</title>
    <desc>Created with Sketch.</desc>
    <g id="Layout" stroke="none" stroke-width="1" fill="none" fill-rule="evenodd">
        <g id="Info-and-about" transform="translate(-1061.000000, -691.000000)" fill="#008BFE">
            <g id="Content" transform="translate(131.000000, 619.000000)">
                <g id="Kontakt" transform="translate(929.000000, 0.000000)">
                    <g id="Telefon" transform="translate(1.000000, 68.000000)">
                        <g id="communications" transform="translate(0.000000, 4.000000)">
                            <path d="M38.9717514,29.5025998 L33.9989536,24.5300181 C32.6279555,23.1591578 30.3970757,23.1591578 29.0261557,24.5300181 L26.7658214,26.7902541 C25.7271818,27.8288486 24.0371071,27.8285361 22.9988581,26.7906448 L13.2015502,16.9854033 C12.1604885,15.9443869 12.1603323,14.2594639 13.2015502,13.2182912 C13.5656288,12.8542285 14.6110656,11.8088371 15.4618844,10.9580552 C16.8268666,9.59321049 16.84593,7.36938076 15.4605562,5.98422351 L10.4890866,1.02859493 C9.11808847,-0.34226543 6.88728677,-0.34226543 5.51996072,1.02500118 C4.49679051,2.03922066 4.16677592,2.3664084 3.70800565,2.82117435 C-1.23596282,7.76484979 -1.23596282,15.80884 3.70777127,20.7523592 L19.2312697,36.2833079 C24.1868012,41.2387021 32.2074682,41.2390927 37.1633903,36.2833079 L38.9717514,34.4751034 C40.3427495,33.1041649 40.3427495,30.8735383 38.9717514,29.5025998 Z M7.17394006,2.68609613 C7.63091338,2.22914268 8.37438373,2.22906455 8.83284149,2.68734613 L13.8043112,7.64297471 C14.2623783,8.10102191 14.2623783,8.84235057 13.8043112,9.3004759 L12.9754464,10.1292265 L6.34937237,3.50344047 L7.17394006,2.68609613 Z M20.8891555,34.626041 L5.3655789,19.0949361 C1.54056612,15.2700896 1.33032246,9.26422587 4.71898783,5.18820731 L11.3258423,11.7947746 C9.58982807,13.7626666 9.66217501,16.7613407 11.5435863,18.6426701 L21.3405817,28.4474428 C21.3406598,28.447521 21.3408161,28.4476772 21.3408942,28.4477553 C23.2202741,30.3271317 26.2189223,30.404163 28.1893218,28.6658805 L34.7963326,35.272604 C30.7331061,38.6552627 24.7404976,38.4772157 20.8891555,34.626041 Z M37.3142563,32.8176022 L36.4853916,33.646431 L29.8550204,27.0162699 L30.6837289,26.1875193 C31.1407804,25.7305659 31.8843289,25.7304878 32.3413803,26.1875193 L37.3141782,31.160101 C37.7712296,31.6171326 37.7712296,32.3607269 37.3142563,32.8176022 Z" id="Shape"></path>
                        </g>
                    </g>
                </g>
            </g>
        </g>
    </g>
</svg>