<?xml version="1.0" encoding="UTF-8"?>
<svg width="75px" height="39px" viewBox="0 0 75 39" version="1.1" xmlns="http://www.w3.org/2000/svg" xmlns:xlink="http://www.w3.org/1999/xlink">
    <!-- Generator: Sketch 52.6 (67491) - http://www.bohemiancoding.com/sketch -->
    <title>transportation</title>
    <desc>Created with Sketch.</desc>
    <g id="Layout" stroke="none" stroke-width="1" fill="none" fill-rule="evenodd">
        <g id="Additional-services" transform="translate(-370.000000, -252.000000)" fill="#000000" fill-rule="nonzero">
            <g id="Kierowca" transform="translate(132.000000, 223.000000)">
                <g id="Group-2" transform="translate(218.000000, 29.000000)">
                    <g id="transportation" transform="translate(57.500000, 19.500000) scale(-1, 1) translate(-57.500000, -19.500000) translate(20.000000, 0.000000)">
                        <g id="Group">
                            <path d="M70.9509202,15.026186 L64.9386503,12.3203721 L59.6319018,3.97618605 C58.0981595,1.5575814 55.398773,0.0913023256 52.5,0.106418605 L29.892638,0.106418605 C27.2699387,0.106418605 24.7852761,1.30060465 23.190184,3.3564186 L16.3343558,12.1994419 L4.90797546,15.2831628 C2.00920245,16.0692093 -1.13686838e-13,18.6843256 -1.13686838e-13,21.6471163 L-1.13686838e-13,25.9552558 C-1.13686838e-13,29.5982791 2.94478528,32.6064186 6.64110429,32.6064186 L7.62269939,32.6064186 C8.80368098,37.0959535 13.4509202,39.7866512 18.006135,38.6226977 C20.9969325,37.8517674 23.3435583,35.554093 24.1104294,32.6064186 L49.8773006,32.6064186 C51.0582822,37.0959535 55.7055215,39.7866512 60.2607362,38.6226977 C63.2515337,37.8517674 65.5981595,35.554093 66.3650307,32.6064186 L68.2055215,32.6064186 C71.9018405,32.6064186 74.8466258,29.5982791 74.8466258,25.9552558 L74.8466258,21.0424651 C74.8619632,18.4575814 73.3282209,16.0994419 70.9509202,15.026186 Z M15.8588957,35.8413023 C12.8527607,35.8413023 10.4141104,33.437814 10.4141104,30.4750233 C10.4141104,27.5122326 12.8527607,25.1087442 15.8588957,25.1087442 C18.8650307,25.1087442 21.303681,27.5122326 21.303681,30.4750233 C21.3190184,33.4226977 18.8803681,35.826186 15.8588957,35.8413023 Z M58.1134969,35.8413023 C55.107362,35.8413023 52.6687117,33.437814 52.6687117,30.4750233 C52.6687117,27.5122326 55.107362,25.1087442 58.1134969,25.1087442 C61.1196319,25.1087442 63.5582822,27.5122326 63.5582822,30.4750233 C63.5736196,33.4226977 61.1349693,35.826186 58.1134969,35.8413023 Z M68.2055215,29.5831628 L66.5797546,29.5831628 C66.0736196,24.9726977 61.8558282,21.6471163 57.1779141,22.1610698 C53.2055215,22.5843256 50.0766871,25.6831628 49.6472393,29.5831628 L24.3251534,29.5831628 C23.8190184,24.9726977 19.601227,21.6471163 14.9233129,22.1610698 C10.9509202,22.5843256 7.82208589,25.6831628 7.39263804,29.5831628 L6.62576687,29.5831628 C4.61656442,29.5831628 3.05214724,27.9354884 3.05214724,25.9552558 L3.05214724,21.6471163 C3.03680982,20.0296744 4.12576687,18.6238605 5.70552147,18.1854884 L17.6533742,14.9657209 C17.9754601,14.8750233 18.2668712,14.6936279 18.4662577,14.4215349 L25.6134969,5.18548837 C26.6411043,3.88548837 28.2208589,3.12967442 29.892638,3.12967442 L52.5,3.12967442 C54.3404908,3.11455814 56.0736196,4.03665116 57.0398773,5.57851163 L62.5920245,14.3157209 C62.7453988,14.5726977 62.9907975,14.7692093 63.2515337,14.8901395 L69.6625767,17.7773488 C70.9509202,18.3668837 71.7791411,19.6366512 71.7638037,21.0424651 L71.7638037,25.9552558 L71.7791411,25.9552558 C71.7791411,27.9354884 70.2147239,29.5831628 68.2055215,29.5831628 Z" id="Shape"></path>
                        </g>
                    </g>
                </g>
            </g>
        </g>
    </g>
</svg>