<?xml version="1.0" encoding="UTF-8"?>
<svg width="117px" height="39px" viewBox="0 0 117 39" version="1.1" xmlns="http://www.w3.org/2000/svg" xmlns:xlink="http://www.w3.org/1999/xlink">
    <!-- Generator: Sketch 52.6 (67491) - http://www.bohemiancoding.com/sketch -->
    <title>transport</title>
    <desc>Created with Sketch.</desc>
    <g id="Layout" stroke="none" stroke-width="1" fill="none" fill-rule="evenodd">
        <g id="Additional-services" transform="translate(-975.000000, -252.000000)" fill="#000000">
            <g id="Slub" transform="translate(758.000000, 223.000000)">
                <g id="Group-3" transform="translate(217.000000, 29.000000)">
                    <g id="transport">
                        <rect id="Rectangle" x="28.2413793" y="26.8965517" width="61.862069" height="4.03448276"></rect>
                        <path d="M109.977856,13.0200641 L96.3551361,11.6687159 L84.715702,1.73013345 C83.3857422,0.620510085 81.6951849,0.00385128567 79.9500125,0 L26.4634594,0 C26.4595746,0 26.4556899,0 26.4518051,0 C23.8798638,0 21.4948481,1.27001809 20.0812516,3.39275613 L14.5568907,11.5991662 L7.79991761,11.5991662 C3.49834292,11.5991662 0,15.0673623 0,19.3318682 L0,28.9979156 C0,30.0669872 0.873614538,30.9310345 1.94992227,30.9310345 L13.649913,30.9310345 L13.649913,27.0645702 L3.90007306,27.0645702 L3.90007306,19.3318682 C3.90007306,17.1996153 5.64913027,15.465404 7.80014613,15.465404 L15.6000637,15.465404 C16.2513328,15.465404 16.8598694,15.1425756 17.2204667,14.605208 L23.3298271,5.53089931 C24.0258852,4.48901327 25.1919995,3.86646427 26.4556899,3.86646427 C26.4577465,3.86646427 26.4595746,3.86646427 26.4616313,3.86646427 L79.9442996,3.86646427 C80.7671837,3.86850318 81.5724721,4.16029471 82.1867216,4.67455462 L94.2767882,14.9978126 C94.5809422,15.2549425 94.9573072,15.4153373 95.3551525,15.455889 L109.590065,16.8670454 C111.600544,17.0661795 113.109888,18.7288022 113.100062,20.7430246 L113.100062,27.0645702 L105.299916,27.0645702 L105.299916,30.9310345 L115.049985,30.9310345 C116.128349,30.9310345 116.999907,30.0669872 116.999907,28.9979156 L116.999907,20.7527661 C117.019331,16.7453901 114.00087,13.4221836 109.977856,13.0200641 Z" id="Path"></path>
                        <path d="M20.8448276,20.1724138 C15.2831947,20.1724138 10.7586207,24.3953496 10.7586207,29.5862069 C10.7586207,34.7768436 15.2831947,39 20.8448276,39 C26.4062241,39 30.9310345,34.7770642 30.9310345,29.5862069 C30.9307981,24.3953496 26.4062241,20.1724138 20.8448276,20.1724138 Z M20.8448276,35.2344386 C17.5083679,35.2344386 14.7931507,32.7002359 14.7931507,29.5862069 C14.7931507,26.4721779 17.5083679,23.9379752 20.8448276,23.9379752 C24.1812872,23.9379752 26.8965044,26.4721779 26.8965044,29.5862069 C26.8965044,32.7002359 24.1812872,35.2344386 20.8448276,35.2344386 Z" id="Shape" fill-rule="nonzero"></path>
                        <path d="M97.5,20.1724138 C91.9383671,20.1724138 87.4137931,24.3953496 87.4137931,29.5862069 C87.4137931,34.7768436 91.9383671,39 97.5,39 C103.061633,39 107.586207,34.7770642 107.586207,29.5862069 C107.585971,24.3953496 103.061396,20.1724138 97.5,20.1724138 Z M97.5,35.2344386 C94.1635403,35.2344386 91.4483231,32.7002359 91.4483231,29.5862069 C91.4483231,26.4721779 94.1635403,23.9379752 97.5,23.9379752 C100.83646,23.9379752 103.551677,26.4721779 103.551677,29.5862069 C103.551677,32.7002359 100.83646,35.2344386 97.5,35.2344386 Z" id="Shape" fill-rule="nonzero"></path>
                        <rect id="Rectangle" x="16.137931" y="12.1034483" width="79.3448276" height="4.03448276"></rect>
                        <rect id="Rectangle" x="51.1034483" y="1.34482759" width="4.03448276" height="12.1034483"></rect>
                        <rect id="Rectangle" x="72.6206897" y="1.34482759" width="4.03448276" height="12.1034483"></rect>
                        <rect id="Rectangle" x="29.5862069" y="1.34482759" width="4.03448276" height="12.1034483"></rect>
                        <rect id="Rectangle" x="108.931034" y="18.8275862" width="5.37931034" height="4.03448276"></rect>
                        <path d="M8.33801929,13.4482759 L8.33801929,19.0965076 L2.68965517,19.0965076 L2.68965517,22.862069 L10.2207338,22.862069 C11.2599445,22.862069 12.1034483,22.0205707 12.1034483,20.9793986 L12.1034483,13.4482759 L8.33801929,13.4482759 Z" id="Path"></path>
                    </g>
                </g>
            </g>
        </g>
    </g>
</svg>