<?xml version="1.0" encoding="UTF-8"?>
<svg width="41px" height="51px" viewBox="0 0 41 51" version="1.1" xmlns="http://www.w3.org/2000/svg" xmlns:xlink="http://www.w3.org/1999/xlink">
    <!-- Generator: Sketch 52.6 (67491) - http://www.bohemiancoding.com/sketch -->
    <title>user</title>
    <desc>Created with Sketch.</desc>
    <g id="Colors" stroke="none" stroke-width="1" fill="none" fill-rule="evenodd">
        <g id="Artboard" transform="translate(-399.000000, -58.000000)" fill="#008BFE">
            <g id="user" transform="translate(399.000000, 58.000000)">
                <path d="M20,26 C27.1800722,26 33,20.1797273 33,13 C33,5.82061762 27.1800722,0 20,0 C12.8206175,0 7,5.82061762 7,13 C7.00551783,20.1773132 12.8226868,25.9944822 20,26 Z M20,2.2033372 C25.9630464,2.2033372 30.7966627,7.0369535 30.7966627,13 C30.7966627,18.9630465 25.9630464,23.7966628 20,23.7966628 C14.0376433,23.7966628 9.2033372,18.9630465 9.2033372,13 C9.21333824,7.04143671 14.0414367,2.2129934 20,2.2033372 Z" id="Shape"></path>
                <path d="M20.5,28 C14.9654019,28 9.81853299,30.2078249 5.99933269,34.2244201 C2.12575576,38.2962371 0,43.854524 0,49.8907043 C0.00168869447,50.5026576 0.483986008,50.9982635 1.07908951,51 L39.9212482,51 C40.5166894,50.9982635 40.9983113,50.5026576 41,49.8907043 C41,43.8659852 38.874582,38.2962371 35.0013428,34.2355339 C31.1818046,30.2189387 26.0352736,28 20.5,28 Z M2.17979468,48.7810613 C2.41722818,43.7663083 4.30521272,39.1839514 7.53133592,35.7886868 C10.9408537,32.2048351 15.5480089,30.2303999 20.4895299,30.2303999 C25.431051,30.2303999 30.0382062,32.2048351 33.4473862,35.7886868 C36.6843172,39.1839514 38.5618317,43.7663083 38.7992652,48.7810613 L2.17979468,48.7810613 Z" id="Shape"></path>
            </g>
        </g>
    </g>
</svg>