<?xml version="1.0" encoding="UTF-8"?>
<svg width="53px" height="51px" viewBox="0 0 53 51" version="1.1" xmlns="http://www.w3.org/2000/svg" xmlns:xlink="http://www.w3.org/1999/xlink">
    <!-- Generator: Sketch 52.6 (67491) - http://www.bohemiancoding.com/sketch -->
    <title>Shape</title>
    <desc>Created with Sketch.</desc>
    <g id="Colors" stroke="none" stroke-width="1" fill="none" fill-rule="evenodd">
        <g id="Artboard" transform="translate(-766.000000, -51.000000)" fill="#008BFE">
            <g id="favorite" transform="translate(766.000000, 51.000000)">
                <path d="M52.7608141,19.127919 C52.1240729,17.1706957 50.3859724,15.9060459 48.3329167,15.9060459 L35.0932128,15.9060459 L30.9239657,3.20972997 C30.2830844,1.2580074 28.5486064,0 26.5014504,0 C26.4949298,0 26.4882022,0 26.4816816,0.000103787427 C24.4261419,0.00819920674 22.6923884,1.28177472 22.0648589,3.24470633 L18.0171225,15.9060459 L4.66718945,15.9060459 C2.60895876,15.9060459 0.869512676,17.174951 0.235876537,19.1386091 C-0.397863104,21.1022672 0.270549537,23.1524841 1.9387866,24.3616076 L12.7403059,32.1907084 L8.58265092,44.8518404 C7.93918214,46.811347 8.59641662,48.8644699 10.2569946,50.0823116 C11.0910096,50.6940347 12.0482949,51 13.0062012,51 C13.9554134,50.9998962 14.9051431,50.6993278 15.7350181,50.0977759 L26.5552711,42.2552865 L37.2469754,50.0845949 C38.9056903,51.2993229 41.0538638,51.305135 42.7194098,50.0998516 C44.3849558,48.8945683 45.055956,46.8483991 44.4290474,44.8869205 L40.3699259,32.1907084 L51.0796394,24.348219 C52.7377333,23.1341137 53.3976588,21.0850385 52.7608141,19.127919 Z M49.248491,21.8336572 L36.7290539,31.0014083 L41.4720098,45.8374058 C41.7913119,46.8359446 41.1164822,47.4198527 40.9021306,47.5750149 C40.687779,47.7301771 39.9224889,48.1883986 39.0779168,47.5698255 L26.5644828,38.4065374 L13.9159793,47.5743922 C13.0671636,48.1895403 12.3038401,47.7260256 12.090006,47.5692028 C11.8762754,47.41238 11.2042402,46.8232826 11.531926,45.825574 L16.3999117,31.0013045 L3.75772183,21.8382239 C2.90838858,21.2225569 3.10856047,20.3499122 3.19011965,20.0971898 C3.27167882,19.8444674 3.61923684,19.0196687 4.66718945,19.0196687 L20.2824597,19.0196687 L25.021793,4.19519159 C25.3413021,3.19582245 26.2294484,3.11476447 26.4941018,3.11362281 L26.4994838,3.11362281 C26.7706578,3.11362281 27.6496959,3.19343534 27.9748976,4.1835674 L32.8467129,19.0196687 L48.3330202,19.0196687 C49.3783853,19.0196687 49.7270819,19.8416652 49.809055,20.093661 C49.8910282,20.3456569 50.0926491,21.2156031 49.248491,21.8336572 Z" id="Shape"></path>
            </g>
        </g>
    </g>
</svg>