<?xml version="1.0" encoding="UTF-8"?>
<svg width="64px" height="51px" viewBox="0 0 64 51" version="1.1" xmlns="http://www.w3.org/2000/svg" xmlns:xlink="http://www.w3.org/1999/xlink">
    <!-- Generator: Sketch 52.6 (67491) - http://www.bohemiancoding.com/sketch -->
    <title>car (1)</title>
    <desc>Created with Sketch.</desc>
    <g id="Colors" stroke="none" stroke-width="1" fill="none" fill-rule="evenodd">
        <g id="Artboard" transform="translate(-223.000000, -183.000000)" fill="#008BFE">
            <g id="favorite" transform="translate(223.000000, 42.000000)">
                <g id="car-(1)" transform="translate(0.000000, 141.000000)">
                    <path d="M46.6866301,27.4988125 L43.4722192,24.3113125 C43.2713186,24.1120937 42.9988972,24 42.7146897,24 L21.2852842,24 C21.0010767,24 20.7286554,24.1120937 20.5277547,24.3113125 L17.3133438,27.4988125 C17.0192252,27.7908672 16.9222572,28.2255625 17.0647627,28.613375 L21.3506439,40.300875 C21.5046677,40.7204297 21.906603,40.9997344 22.3567544,41 L41.6432195,41 C42.0933709,40.9997344 42.4953062,40.7202969 42.6493301,40.300875 L46.9352112,28.613375 C47.0777167,28.2255625 46.9808826,27.7908672 46.6866301,27.4988125 Z M23.1067836,38.875 L19.3105644,28.5230625 L21.5327938,26.3194375 L24.2457565,38.875 L23.1067836,38.875 Z M26.4369133,38.875 L23.6821632,26.125 L26.716567,26.125 L27.634817,38.875 L26.4369133,38.875 Z M30.9285167,38.875 L29.7831149,38.875 L28.8648649,26.125 L30.9285167,26.125 L30.9285167,38.875 Z M34.216859,38.875 L33.0714572,38.875 L33.0714572,26.125 L35.135109,26.125 L34.216859,38.875 Z M36.3651569,38.875 L37.2834069,26.125 L40.3178107,26.125 L37.5630606,38.875 L36.3651569,38.875 Z M40.8931903,38.875 L39.7542174,38.875 L42.4671801,26.3194375 L44.6894095,28.5230625 L40.8931903,38.875 Z" id="Shape"></path>
                    <path d="M18.9235288,39.4331428 L16.7807291,33.7188572 C16.6181442,33.2845715 16.223869,32.9998572 15.7853986,33.0000001 L5.07139987,33.0000001 C4.47971929,33.0000001 4,33.5117143 4,34.1428572 L4,39.8571428 C4,40.4882856 4.47971929,40.9999999 5.07139987,40.9999999 L17.9281984,40.9999999 C18.5198789,41.0002856 18.9997322,40.4887142 19,39.8575713 C19,39.7121428 18.9741525,39.5681428 18.9235288,39.4331428 Z M6.14279975,38.7142856 L6.14279975,35.2857143 L15.0600609,35.2857143 L16.3457407,38.7142856 L6.14279975,38.7142856 Z" id="Shape"></path>
                    <path d="M58.9286193,32.0000001 L48.2148124,32.0000001 C47.7764838,31.9998572 47.3820818,32.2845715 47.2194998,32.7188572 L45.0767384,38.4331429 C44.8572393,39.0192857 45.1246827,39.6842857 45.674167,39.9184286 C45.8007239,39.9724286 45.9357178,40 46.072051,40 L58.9286193,40 C59.5202893,40 60,39.4882857 60,38.8571429 L60,33.1428572 C60,32.5117143 59.5202893,32.0000001 58.9286193,32.0000001 Z M57.8572386,37.7142857 L47.6544803,37.7142857 L48.9401371,34.2857143 L57.8572386,34.2857143 L57.8572386,37.7142857 Z" id="Shape"></path>
                    <path d="M58.909153,23.0000347 L54.2272374,23.0000347 C51.9941372,22.9918919 49.9842515,24.4177428 49.1624346,26.593162 L48.0781327,29.4331497 C47.8546454,30.01929 48.1269481,30.6842871 48.6864162,30.9184289 C48.8152726,30.9724287 48.9527193,31 49.0915296,31 L56.7274589,31 C58.5348561,31 60,29.4650067 60,27.5714434 L60,24.1428869 C60,23.5117468 59.5115732,23.0000347 58.909153,23.0000347 Z M57.8183059,27.5714434 C57.8183059,28.2025836 57.3298792,28.7142956 56.7274589,28.7142956 L50.7027107,28.7142956 L51.1892284,27.4411583 C51.6824277,26.1364497 52.8878136,25.2811677 54.2272374,25.2857391 L57.8183059,25.2857208 L57.8183059,27.5714434 Z" id="Shape"></path>
                    <path d="M15.922139,29.4331496 L14.8378123,26.5931619 C14.0159767,24.4177428 12.0060452,22.9918919 9.77289411,23.0000347 L5.0908719,23.0000347 C4.48843789,23.0000347 4,23.5117468 4,24.1428869 L4,27.5714434 C4,29.4650066 5.46517732,30.9999999 7.27261571,30.9999999 L14.908719,30.9999999 C15.511153,31.0002856 15.9997273,30.4887164 16,29.8575763 C16,29.7121483 15.9736827,29.568149 15.922139,29.4331496 Z M7.27261571,28.7142955 C6.6701817,28.7142955 6.1817438,28.2025835 6.1817438,27.5714434 L6.1817438,25.2857208 L9.77289411,25.285739 C11.1123484,25.2811676 12.3177619,26.1364496 12.8109724,27.4411582 L13.2975012,28.7142955 L7.27261571,28.7142955 Z" id="Shape"></path>
                    <path d="M51.9248704,15.5147499 L47.714455,4.68141671 C47.5547223,4.26975005 47.1673641,3.99986463 46.736586,4.00000005 L17.2636779,4.00000005 C16.8328998,3.99986463 16.4455415,4.26975005 16.2858089,4.68141671 L12.0753935,15.5147499 C11.8597413,16.0703645 12.1224975,16.7007291 12.6623517,16.922677 C12.7866905,16.9738645 12.9193186,16.9999999 13.0532625,16.9999999 L50.9470014,16.9999999 C51.5283019,17.0002707 51.9997368,16.5153436 52,15.9170728 C52,15.7792187 51.9746059,15.6427187 51.9248704,15.5147499 Z M14.6079584,14.8333332 L17.9762907,6.16666669 L46.0239732,6.16666669 L49.3923055,14.8333332 L14.6079584,14.8333332 Z" id="Shape"></path>
                    <path d="M58.0426598,15.9375104 L60.7999922,15.9375104 C62.567325,15.9375104 63.9999912,14.5104405 63.9999912,12.7500113 C63.9999912,10.9895822 62.567325,9.56251228 60.7999922,9.56251228 L58.6666596,9.56251228 C57.2821268,9.56729352 56.0583938,10.4601917 55.6362606,11.7735741 L50.610129,1.76163959 C50.0709292,0.679350844 48.9611962,-0.00370364094 47.7482633,1.51079597e-05 L15.2725409,1.51079597e-05 C13.9930747,0.000546357802 12.8369417,0.760233633 12.3328086,1.93163954 L8.24214327,11.4378242 C7.72561011,10.2986917 6.58827716,9.56543415 5.33334425,9.56251228 L3.20001163,9.56251228 C1.43267889,9.56251228 1.27091862e-05,10.9895822 1.27091862e-05,12.7500113 C1.27091862e-05,14.5104405 1.43267889,15.9375104 3.20001163,15.9375104 L5.95734404,15.9375104 L0.937612394,20.9386964 C0.335212596,21.5348915 -0.00238729001,22.3463757 1.27091862e-05,23.1922582 L1.27091862e-05,39.3125035 C0.00321270811,41.836073 1.78521211,44.0104786 4.26667794,44.5187519 L4.26667794,47.8125009 C4.26667794,49.5729301 5.69934412,51 7.46667686,51 L11.7333421,51 C13.5006748,51 14.933341,49.5729301 14.933341,47.8125009 L14.933341,44.6250019 L49.0666629,44.6250019 L49.0666629,47.8125009 C49.0666629,49.5729301 50.499329,51 52.2666618,51 L56.533327,51 C58.3006597,51 59.7333259,49.5729301 59.7333259,47.8125009 L59.7333259,44.5187519 C62.2147918,44.0104786 63.9967912,41.836073 63.9999912,39.3125035 L63.9999912,23.1922582 C64.0019912,22.3465085 63.6643913,21.5351572 63.0623915,20.9386964 L58.0426598,15.9375104 Z M57.5999933,12.7500113 C57.5999933,12.1632459 58.0775932,11.6875116 58.6666596,11.6875116 L60.7999922,11.6875116 C61.3890587,11.6875116 61.8666585,12.1632459 61.8666585,12.7500113 C61.8666585,13.3367768 61.3890587,13.812511 60.7999922,13.812511 L57.5999933,13.812511 L57.5999933,12.7500113 Z M3.20001163,13.812511 C2.61094516,13.812511 2.13334532,13.3367768 2.13334532,12.7500113 C2.13334532,12.1632459 2.61094516,11.6875116 3.20001163,11.6875116 L5.33334425,11.6875116 C5.92241072,11.6875116 6.40001055,12.1632459 6.40001055,12.7500113 L6.40001055,13.812511 L3.20001163,13.812511 Z M12.8000084,47.8125009 C12.8000084,48.3992664 12.3224086,48.8750006 11.7333421,48.8750006 L7.46667686,48.8750006 C6.87761039,48.8750006 6.40001055,48.3992664 6.40001055,47.8125009 L6.40001055,44.6250019 L12.8000084,44.6250019 L12.8000084,47.8125009 Z M57.5999933,47.8125009 C57.5999933,48.3992664 57.1223935,48.8750006 56.533327,48.8750006 L52.2666618,48.8750006 C51.6775953,48.8750006 51.1999955,48.3992664 51.1999955,47.8125009 L51.1999955,44.6250019 L57.5999933,44.6250019 L57.5999933,47.8125009 Z M61.8666585,39.3125035 C61.8666585,41.0729326 60.4339924,42.5000025 58.6666596,42.5000025 L5.33334425,42.5000025 C3.56601151,42.5000025 2.13334532,41.0729326 2.13334532,39.3125035 L2.13334532,23.1922582 C2.13334532,22.9104302 2.24587862,22.6402897 2.44587855,22.441071 L8.36694323,16.5441977 L14.2933412,2.76888929 C14.4613412,2.37868628 14.8462744,2.12554573 15.2725409,2.12501448 L47.7482633,2.12501448 C48.1526632,2.12342073 48.522663,2.35145972 48.701863,2.7125768 L55.6565273,16.5675727 L61.5541253,22.441071 C61.7541253,22.6402897 61.8666585,22.9104302 61.8666585,23.1922582 L61.8666585,39.3125035 Z" id="Shape"></path>
                </g>
            </g>
        </g>
    </g>
</svg>