<?xml version="1.0" encoding="UTF-8"?>
<svg width="60px" height="51px" viewBox="0 0 60 51" version="1.1" xmlns="http://www.w3.org/2000/svg" xmlns:xlink="http://www.w3.org/1999/xlink">
    <!-- Generator: Sketch 52.6 (67491) - http://www.bohemiancoding.com/sketch -->
    <title>diamond</title>
    <desc>Created with Sketch.</desc>
    <g id="Colors" stroke="none" stroke-width="1" fill="none" fill-rule="evenodd">
        <g id="Artboard" transform="translate(-307.000000, -58.000000)" fill="#008BFE">
            <g id="diamond" transform="translate(307.000000, 58.000000)">
                <path d="M59.7717875,12.3599454 L49.9386133,0.358974359 C49.7518207,0.131963803 49.475492,0 49.1833765,0 L11.8171302,0 C11.5251298,0 11.2488012,0.131026227 11.0618933,0.358974359 L1.22871914,12.3599454 C0.9838491,12.6579773 0.930726705,13.0729719 1.09297471,13.4239768 C1.25522272,13.7749818 1.6023044,14 1.98384073,14 L59.0164355,14 C59.3979718,14 59.7450535,13.7749818 59.9073015,13.4239768 C60.0687429,13.0740266 60.0166576,12.6589149 59.7717875,12.3599454 Z M4.08338527,11.9999163 L12.2773706,1.99914614 L48.7222142,1.99914614 L56.9161995,11.9999163 L4.08338527,11.9999163 Z" id="Shape"></path>
                <path d="M30.9237874,0.616995631 C30.768753,0.243048231 30.4038422,0 29.9997918,0 L11.0004037,0 C10.6424066,0 10.3124166,0.191016691 10.1334767,0.502034052 C9.95453675,0.813051412 9.95547423,1.1940301 10.1365235,1.50399277 L17.1362734,13.5040597 C17.2922452,13.7710143 17.5632918,13.95207 17.8712512,13.9920312 C17.9142577,13.9970703 17.9572642,14 17.9992161,14 C18.2632316,14 18.5182239,13.8960541 18.7072416,13.7070296 L30.7068799,1.70696265 C30.9928088,1.42102355 31.0788218,0.99094303 30.9237874,0.616995631 Z M18.2092098,11.37604 L12.7403512,2.00005022 L27.5848646,2.00005022 L18.2092098,11.37604 Z" id="Shape"></path>
                <path d="M58.8984524,12.5430536 C58.7332024,12.2105718 58.3910634,12 58.0173495,12 L0.982699758,12 C0.608985802,12 0.267768713,12.2105718 0.101596797,12.5430536 C-0.0636532223,12.8755354 -0.0252792639,13.2723427 0.201853085,13.5667776 L28.7192356,50.615875 C28.905113,50.8576384 29.1942429,51 29.5010041,51 C29.8077653,51 30.0968952,50.8576384 30.2808137,50.615875 L58.7981962,13.5667776 C59.0253285,13.2723427 59.0635872,12.8755354 58.8984524,12.5430536 Z M29.5010041,48.418296 L2.97100089,13.9510169 L56.0310074,13.9510169 L29.5010041,48.418296 Z" id="Shape"></path>
                <path d="M30.9536593,49.7306279 L18.9535566,12.6815305 C18.8216024,12.2759256 18.4365209,12 17.999525,12 L0.999340498,12 C0.619298184,12 0.272303027,12.2105718 0.103317206,12.5430536 C-0.0647311067,12.8755354 -0.0257073353,13.2723427 0.205271203,13.5667776 L29.2055584,50.615875 C29.3995054,50.8644937 29.6965782,51 30.0005652,51 C30.1565431,51 30.3145132,50.9649237 30.4605301,50.88883 C30.8916666,50.6715171 31.099559,50.1820491 30.9536593,49.7306279 Z M3.02037342,13.9510169 L17.2665109,13.9510169 L27.3225735,44.9981895 L3.02037342,13.9510169 Z" id="Shape"></path>
                <path d="M49.8672661,0.502034052 C49.6892583,0.191016691 49.3583208,0 49.0003129,0 L30.0002341,0 C29.5962888,0 29.2312497,0.243048231 29.0762106,0.616995631 C28.9211716,0.99094303 29.0071872,1.42102355 29.2932419,1.70696265 L41.2932423,13.7070296 C41.4812111,13.8960541 41.7362111,14 42.0002346,14 C42.0432424,14 42.0862502,13.9969531 42.129258,13.9920312 C42.4362893,13.95207 42.7082815,13.772069 42.864258,13.5040597 L49.8642192,1.50399277 C50.0442192,1.1940301 50.0452739,0.813051412 49.8672661,0.502034052 Z M41.7902345,11.37604 L32.4141795,2.00005022 L47.259141,2.00005022 L41.7902345,11.37604 Z" id="Shape"></path>
                <path d="M59.896741,12.5430791 C59.7286927,12.2105817 59.3807599,12 59.0007174,12 L42.0005271,12 C41.563531,12 41.177512,12.2759385 41.0464952,12.6815625 L29.0463884,49.7323966 C28.9003715,50.1828106 29.1083812,50.6723016 29.5394006,50.8907672 C29.6854176,50.9648078 29.8433877,51 29.9993657,51 C30.3024152,51 30.599371,50.8644873 30.7943727,50.6177994 L59.7946698,13.5669653 C60.0257656,13.2722881 60.0646722,12.8754622 59.896741,12.5430791 Z M32.6765379,44.9975654 L42.7326039,13.9489374 L56.9787463,13.9489374 L32.6765379,44.9975654 Z" id="Shape"></path>
            </g>
        </g>
    </g>
</svg>