<?xml version="1.0" encoding="UTF-8"?>
<svg width="49px" height="51px" viewBox="0 0 49 51" version="1.1" xmlns="http://www.w3.org/2000/svg" xmlns:xlink="http://www.w3.org/1999/xlink">
    <!-- Generator: Sketch 52.6 (67491) - http://www.bohemiancoding.com/sketch -->
    <title>start-button</title>
    <desc>Created with Sketch.</desc>
    <g id="Colors" stroke="none" stroke-width="1" fill="none" fill-rule="evenodd">
        <g id="Artboard" transform="translate(-662.000000, -58.000000)" fill="#008BFE">
            <g id="start-button" transform="translate(662.000000, 58.000000)">
                <path d="M48.9425853,3.80724332 C48.8364506,1.78139528 47.2884531,0.170418763 45.3420436,0.059852762 C41.4145801,-0.163470638 33.7292389,0.0537766124 26.3803899,4.00994766 C22.6340923,6.02683089 18.6719843,9.44630859 15.5100499,13.3916222 C15.4710987,13.4402314 15.4332003,13.4891395 15.3945362,13.5378483 L8.21871835,14.1147837 C7.03755079,14.2098107 5.98548669,14.8541813 5.33221738,15.8825448 L0.436621398,23.5894931 C-0.0588335111,24.3694316 -0.137597156,25.3455003 0.225787486,26.2004444 C0.58926783,27.0554882 1.33613476,27.6513493 2.22378094,27.7944874 L8.26944099,28.769062 C8.2480992,28.8913818 8.22666171,29.0136021 8.20704258,29.135922 C8.00577897,30.3890033 8.40466946,31.6773462 9.27422776,32.5822941 L17.6953343,41.3471897 C18.4162657,42.0975444 19.3904274,42.5112206 20.3886107,42.5112206 C20.5941809,42.5112206 20.8008996,42.4935898 21.0066613,42.4578301 C21.1241847,42.4374103 21.2416123,42.4150979 21.3591357,42.3928851 L22.2954948,48.6853854 C22.4330201,49.609259 23.005516,50.3867073 23.82684,50.7649227 C24.1685957,50.922305 24.5302577,51 24.8902927,51 C25.3958922,50.9999004 25.8979506,50.8467017 26.3355051,50.5455837 L33.7402448,45.4500848 C34.7283792,44.7700541 35.3473868,43.6750522 35.4384962,42.4457775 L35.9928085,34.9771935 C36.0396073,34.9369515 36.0866932,34.8975063 36.1333963,34.8569654 C39.9241001,31.5659834 43.2095873,27.4421703 45.1472878,23.542876 C48.9485189,15.8938006 49.1568645,7.89469904 48.9425853,3.80724332 Z M32.1568371,42.9572697 L25.0737556,47.8314374 L24.1611309,41.6990087 C27.1547236,40.7829046 30.1160644,39.3156639 32.9372959,37.3500793 L32.5762081,42.2154814 C32.5537179,42.5189901 32.4007843,42.7894285 32.1568371,42.9572697 Z M19.725484,39.2341838 L11.3042818,30.4692882 C11.0894283,30.2455663 10.9900885,29.9312999 11.0388014,29.6285881 C11.2891607,28.0704044 11.6781937,26.5871266 12.1597717,25.1898114 L24.7952596,38.3409898 C23.1828539,38.9421301 21.7385985,39.3007226 20.5332181,39.5104992 C20.2418978,39.5609013 19.9403374,39.457806 19.725484,39.2341838 Z M8.4398882,17.0941888 L13.11441,16.718364 C11.2258052,19.654738 9.81609867,22.7369395 8.93591733,25.8527094 L3.04405215,24.9029375 L7.72718727,17.5306754 C7.88854268,17.2766725 8.14837658,17.1175969 8.4398882,17.0941888 Z M34.2945571,32.5620735 C31.9753841,34.5754704 29.7241602,36.0317541 27.6491258,37.0855178 L13.3682146,22.2217618 C14.6944681,19.4024283 16.3130945,17.0547436 17.714762,15.3058086 C20.640884,11.6546403 24.2801855,8.50490383 27.6995613,6.66412933 C34.444141,3.0330821 41.5501914,2.83754961 45.1857604,3.04354104 C45.6669556,3.07083391 46.0496722,3.46917034 46.0758949,3.97010405 C46.274096,7.75405112 46.085848,15.1500201 42.5971832,22.1699651 C40.8286857,25.7287958 37.8024583,29.516528 34.2945571,32.5620735 Z" id="Shape"></path>
                <path d="M33.0000467,24 C34.7922931,23.9997999 36.5852862,23.2684317 37.9497717,21.8057955 C39.2719757,20.3885822 40,18.5042338 40,16.500025 C40,14.4958162 39.2718824,12.6114678 37.9497717,11.1942544 C35.2204273,8.26848181 30.7794793,8.26868191 28.0503217,11.1942544 C26.7281176,12.6114678 26,14.4958162 26,16.500025 C26,18.5042338 26.7282109,20.3885822 28.0503217,21.8057955 C29.4150872,23.2687319 31.2071469,24.0002001 33.0000467,24 Z M30.030081,13.3165226 C30.8488283,12.4387808 31.9243441,11.99996 32.99986,11.99996 C34.0754692,11.99996 35.150985,12.4387808 35.9697323,13.3165226 C36.7629988,14.1668506 37.1998133,15.2974197 37.1998133,16.4999249 C37.1998133,17.7024302 36.7629988,18.8330993 35.9697323,19.6834273 C34.3322377,21.4388108 31.6675756,21.4387108 30.0299877,19.6834273 C29.2367212,18.8330993 28.7998133,17.7025303 28.7998133,16.500025 C28.7998133,15.2975197 29.2368146,14.1668506 30.030081,13.3165226 Z" id="Shape"></path>
                <path d="M1.51947526,42 C1.90837259,42 2.29726992,41.8516971 2.59388138,41.5548887 L7.55493086,36.5939334 C8.14835638,36.0005192 8.14835638,35.0384749 7.55493086,34.4450607 C6.96160665,33.8516464 5.99944284,33.8516464 5.40601732,34.4450607 L0.445069138,39.4060159 C-0.148356379,39.9994302 -0.148356379,40.9614744 0.445069138,41.5548887 C0.741680596,41.8515958 1.13057793,42 1.51947526,42 Z" id="Path"></path>
                <path d="M11.5753616,38.4600357 C11.0092577,37.8466548 10.0912356,37.8466548 9.52503496,38.4600357 L0.424650459,48.3188406 C-0.141550153,48.9322215 -0.141550153,49.9266358 0.424650459,50.5400167 C0.707750765,50.8467071 1.07870979,51 1.44976546,51 C1.82082114,51 2.19187681,50.8467071 2.47488047,50.539912 L11.575265,40.6812117 C12.1415622,40.0678308 12.1415622,39.0734166 11.5753616,38.4600357 Z" id="Path"></path>
                <path d="M14.4061186,43.4450607 L9.44506914,48.4060159 C8.85164362,48.9994302 8.85164362,49.9614744 9.44506914,50.5548887 C9.7417819,50.8515958 10.1306792,51 10.5194753,51 C10.9082713,51 11.2972699,50.8516971 11.5938814,50.5548887 L16.5549309,45.5939334 C17.1483564,45.0005192 17.1483564,44.0384749 16.5549309,43.4450607 C15.9616066,42.8516464 14.9994428,42.8516464 14.4061186,43.4450607 Z" id="Path"></path>
            </g>
        </g>
    </g>
</svg>