<?xml version="1.0" encoding="UTF-8"?>
<svg width="20px" height="35px" viewBox="0 0 20 35" version="1.1" xmlns="http://www.w3.org/2000/svg" xmlns:xlink="http://www.w3.org/1999/xlink">
    <!-- Generator: Sketch 52.6 (67491) - http://www.bohemiancoding.com/sketch -->
    <title>multimedia-option (1)</title>
    <desc>Created with Sketch.</desc>
    <g id="Layout" stroke="none" stroke-width="1" fill="none" fill-rule="evenodd">
        <g id="Hero" transform="translate(-1400.000000, -495.000000)" fill="#FFFFFF">
            <g id="Silder" transform="translate(-409.000000, -1.000000)">
                <g id="Arrows" transform="translate(429.000000, 496.000000)">
                    <g id="multimedia-option-(1)" transform="translate(1380.000000, 0.000000)">
                        <path d="M19.5780364,16.5395506 L2.4495275,0.395791936 C1.88833188,-0.132829158 0.979743231,-0.131940489 0.419487884,0.398526301 C-0.140333493,0.928924731 -0.138886926,1.78813054 0.422381018,2.31716179 L16.5313496,17.5000647 L0.421802391,32.6828992 C-0.139393225,33.2119988 -0.140839791,34.0706577 0.418909257,34.6011245 C0.699760215,34.8670415 1.0676945,35 1.43562878,35 C1.80262279,35 2.16911051,34.8679302 2.44945517,34.6038589 L19.5780364,18.4605103 C19.8483275,18.2063511 20,17.860454 20,17.5000647 C20,17.1396754 19.8478935,16.7941884 19.5780364,16.5395506 Z" id="Path"></path>
                    </g>
                </g>
            </g>
        </g>
    </g>
</svg>